<?xml version="1.0" encoding="utf-8"?>
<!-- Generator: Adobe Illustrator 25.2.0, SVG Export Plug-In . SVG Version: 6.00 Build 0)  -->
<svg version="1.1" id="Vrstva_1" xmlns="http://www.w3.org/2000/svg" xmlns:xlink="http://www.w3.org/1999/xlink" x="0px" y="0px"
	 viewBox="0 0 600 600" style="enable-background:new 0 0 600 600;" xml:space="preserve">
<style type="text/css">
	.st0{fill:#FFFFFF;}
	.st1{fill:#2A006B;}
	.st2{fill:#00F9FF;}
	.st3{fill:#0D2FDA;}
	.st4{fill:#FF225C;}
	.st5{fill:#FF6EE4;}
	.st6{fill:#FF00CF;}
</style>
<g>
	
		<image style="overflow:visible;opacity:0.75;" width="600" height="210" xlink:href="538300E1.png"  transform="matrix(1 0 0 1 2.4961 162.4961)">
	</image>
	<g>
		<g>
			<g>
				<path class="st0" d="M233.3,194.6v117.6c0,8.6,0.2,18.5,0.8,25.1h-15.9l-0.8-16.9H217c-5.4,10.9-17.3,19.1-33.2,19.1
					c-23.5,0-41.6-19.9-41.6-49.5c-0.2-32.4,19.9-52.3,43.6-52.3c14.9,0,24.9,7,29.4,14.9h0.4v-58.1H233.3z M215.6,279.7
					c0-2.2-0.2-5.2-0.8-7.4c-2.6-11.3-12.3-20.5-25.5-20.5c-18.3,0-29.2,16.1-29.2,37.6c0,19.7,9.7,36,28.8,36
					c11.9,0,22.7-7.8,25.9-21.1c0.6-2.4,0.8-4.8,0.8-7.6V279.7z"/>
				<path class="st0" d="M282.4,212.7c0.2,6-4.2,10.9-11.3,10.9c-6.2,0-10.7-4.8-10.7-10.9c0-6.2,4.6-11.1,11.1-11.1
					C278.2,201.7,282.4,206.5,282.4,212.7z M262.7,337.4v-97.3h17.7v97.3H262.7z"/>
				<path class="st0" d="M316.6,240.1l19.1,54.7c3.2,8.8,5.8,16.9,7.8,24.9h0.6c2.2-8,5-16.1,8.2-24.9l18.9-54.7h18.5l-38.2,97.3
					h-16.9l-37-97.3H316.6z"/>
			</g>
			<g>
				<path class="st0" d="M574.3,337.5l-1.4-12.3h-0.6c-5.4,7.6-15.9,14.5-29.8,14.5c-19.7,0-29.8-13.9-29.8-27.9
					c0-23.5,20.9-36.4,58.5-36.2v-2c0-8-2.2-22.5-22.1-22.5c-9,0-18.5,2.8-25.3,7.2l-4-11.7c8-5.2,19.7-8.6,32-8.6
					c29.8,0,37,20.3,37,39.8v36.4c0,8.4,0.4,16.7,1.6,23.3H574.3z M571.7,287.9c-19.3-0.4-41.2,3-41.2,21.9
					c0,11.5,7.6,16.9,16.7,16.9c12.7,0,20.7-8,23.5-16.3c0.6-1.8,1-3.8,1-5.6V287.9z"/>
			</g>
			<g>
				<path class="st1" d="M124,215.7l-68.2,68.2c-10.8,10.8-28.2,10.8-39,0c-10.8-10.8-10.8-28.2,0-39L85,176.7
					c10.8-10.8,28.2-10.8,39,0C134.7,187.5,134.7,204.9,124,215.7"/>
				<path class="st2" d="M75,264.6l-19.3,19.3c-5.4,5.4-12.4,8.1-19.5,8.1s-14.1-2.7-19.5-8.1c-5.3-5.3-8-12.3-8.1-19.3
					c-0.1,7.1,2.6,14.2,8.1,19.7L85,352.5c5.4,5.4,12.4,8.1,19.5,8.1c7,0,14.1-2.7,19.5-8.1c10.8-10.8,10.8-28.2,0-39L75,264.6"/>
				<path class="st3" d="M36.3,237.3c-7,0-14.1,2.7-19.5,8.1c-5.3,5.3-8,12.3-8.1,19.3c0.1,7,2.7,14,8.1,19.3
					c5.4,5.4,12.4,8.1,19.5,8.1s14.1-2.7,19.5-8.1L75,264.6l-19.3-19.3C50.4,239.9,43.3,237.3,36.3,237.3"/>
			</g>
			<g>
				<path class="st4" d="M387.6,216l68.2,68.2c10.8,10.8,28.2,10.8,39,0c10.8-10.8,10.8-28.2,0-39l-68.2-68.2
					c-10.8-10.8-28.2-10.8-39,0C376.9,187.8,376.9,205.3,387.6,216"/>
				<path class="st5" d="M502.9,265c-0.1,7-2.7,13.9-8.1,19.3c-5.4,5.4-12.4,8.1-19.5,8.1c-7,0-14.1-2.7-19.5-8.1L436.6,265
					l-48.9,48.9c-10.8,10.8-10.8,28.2,0,39c5.4,5.4,12.4,8.1,19.5,8.1c7,0,14.1-2.7,19.5-8.1l68.2-68.2
					C500.2,279.2,502.9,272.1,502.9,265"/>
				<path class="st6" d="M475.3,237.6c-7,0-14.1,2.7-19.5,8.1L436.6,265l19.3,19.3c5.4,5.4,12.4,8.1,19.5,8.1c7,0,14.1-2.7,19.5-8.1
					c5.3-5.3,8-12.3,8.1-19.3c-0.1-7-2.7-13.9-8.1-19.3C489.4,240.3,482.4,237.6,475.3,237.6"/>
			</g>
		</g>
	</g>
</g>
</svg>
