<svg id="Vrstva_1" data-name="Vrstva 1" xmlns="http://www.w3.org/2000/svg" viewBox="0 0 614.52 192.29"><defs><style>.cls-1{fill:#fff;}.cls-2{fill:#2a006b;}.cls-3{fill:#00f9ff;}.cls-4{fill:#0d2fda;}.cls-5{fill:#ff225c;}.cls-6{fill:#ff6ee4;}.cls-7{fill:#ff00cf;}</style></defs><path class="cls-1" d="M140.57,119.43c0-32.17,20.18-51.87,41.82-51.87,11.17,0,18.25,4.18,25.89,10.85l-.88-15.92V26.7h23.16v142h-19L209.81,158h-.64c-7.32,7.32-17.46,13.11-28.07,13.11C156.49,171.14,140.57,152,140.57,119.43ZM207.4,140.9v-46c-6.76-6-13.43-8.2-20.11-8.2-12.54,0-22.92,11.9-22.92,32.49,0,21.47,8.2,32.81,22.44,32.81C194.45,152,200.88,148.62,207.4,140.9Z"/><path class="cls-1" d="M257.34,39.57c0-7.8,6.11-13.11,14.32-13.11S286,31.77,286,39.57c0,7.64-6.11,13.11-14.31,13.11S257.34,47.21,257.34,39.57ZM260,70h23.17v98.76H260Z"/><path class="cls-1" d="M300.37,70h23.48l15.68,51.23c2.74,9.73,5.63,19.86,8.36,29.75h.81c2.73-9.89,5.63-20,8.36-29.75L372.74,70H395.1l-33.53,98.76H334.79Z"/><path class="cls-1" d="M533.29,142.35c0-21.15,17.53-32.17,58.07-36.51-.33-10.62-4.59-19.47-17.94-19.47-9.81,0-19.06,4.43-27.74,9.74l-8.53-15.44c10.86-6.84,24.85-13,40.53-13,24.69,0,36.84,15.2,36.84,42.7v58.47h-19L593.77,158h-.65c-8.84,7.56-19,13.35-30.64,13.35C545.19,171.3,533.29,159.56,533.29,142.35Zm58.07.08v-22.2c-26.78,3.38-35.71,10.38-35.71,20.35,0,8.72,6,12.54,14.23,12.54C577.92,153.12,584,149.18,591.36,142.43Z"/><path class="cls-2" d="M115.24,47,47,115.24a27.55,27.55,0,0,1-38.95-39L76.28,8.07a27.55,27.55,0,0,1,39,39"/><path class="cls-3" d="M66.3,96,47,115.24A27.55,27.55,0,0,1,0,96a27.48,27.48,0,0,0,8.07,19.68l68.21,68.21a27.55,27.55,0,0,0,39-38.95L66.3,96"/><path class="cls-4" d="M27.54,68.61A27.35,27.35,0,1,0,47,115.24L66.3,96,47,76.68a27.46,27.46,0,0,0-19.48-8.07"/><path class="cls-5" d="M399.77,47.4,468,115.61a27.54,27.54,0,1,0,38.95-38.95L438.72,8.44a27.55,27.55,0,0,0-39,39"/><path class="cls-6" d="M515,96.34a27.54,27.54,0,0,1-47,19.27L448.71,96.34l-48.94,48.93a27.55,27.55,0,0,0,39,39L506.94,116A27.46,27.46,0,0,0,515,96.34"/><path class="cls-7" d="M487.46,69A27.42,27.42,0,0,0,468,77.06L448.71,96.34,468,115.61A27.4,27.4,0,1,0,487.46,69"/></svg>